<?xml version="1.0" encoding="UTF-8" standalone="no" ?>
<!DOCTYPE svg PUBLIC "-//W3C//DTD SVG 1.1//EN" "http://www.w3.org/Graphics/SVG/1.1/DTD/svg11.dtd">
<svg xmlns="http://www.w3.org/2000/svg" xmlns:xlink="http://www.w3.org/1999/xlink" version="1.1" width="1200" height="900" viewBox="0 0 1200 900" xml:space="preserve">
<path  d="M 475.006104 850.976196 C 474.578522 851.084473 474.15097 851.19281 473.099915 850.99469 C 471.024048 850.501099 469.553345 850.061829 468.122253 850.166199 C 455.753143 851.068176 443.403412 852.572754 431.023071 852.872131 C 421.826447 853.094543 412.597717 851.702148 403.373596 851.211243 C 399.55365 851.007874 395.708405 851.280151 391.874664 851.336121 C 391.44278 851.303894 391.010895 851.271667 390.197998 850.793701 C 388.859039 850.285706 387.901093 850.22345 386.943115 850.161194 C 386.775421 850.178406 386.607697 850.195618 386.103333 849.768005 C 383.150726 848.622681 380.53479 847.922119 377.918854 847.221558 C 377.749878 847.222717 377.580872 847.223938 377.116547 846.720825 C 374.836304 845.495178 372.851379 844.773804 370.866455 844.052429 C 370.413483 843.922546 369.96051 843.792603 369.108429 843.161011 C 367.496033 842.098083 366.282745 841.536865 365.069489 840.975647 C 364.857819 840.918762 364.646149 840.861877 364.112976 840.319153 C 363.196106 839.554749 362.600677 839.276123 362.00528 838.997498 C 362.00528 838.997498 362 839 361.967102 838.63855 C 358.953522 836.186218 355.972778 834.095276 352.992035 832.004333 C 352.992035 832.004333 353 832 352.921997 831.69873 C 352.203125 830.932678 351.562286 830.467957 350.921448 830.003174 C 350.019592 829.187744 349.117706 828.372375 348.096466 826.907593 C 346.936707 825.175171 345.896301 824.092102 344.855896 823.009033 C 344.599792 822.786987 344.343658 822.564941 344.034241 821.717773 C 341.706909 816.744812 339.4328 812.396851 337.158691 808.04895 C 337.010254 807.731873 336.861755 807.414734 336.782471 806.487427 C 336.58609 805.257324 336.320587 804.637512 336.055054 804.0177 C 335.925537 803.699585 335.79599 803.381409 335.79425 802.432068 C 335.629456 800.872009 335.336884 799.943176 335.044281 799.014343 C 334.913177 794.603577 334.782043 790.192749 335.095459 785.310181 C 337.983917 776.44696 340.427795 768.055603 342.871704 759.664185 C 343.516235 758.15332 344.160767 756.642517 345.186951 754.911682 C 345.568604 754.691711 345.843811 754.385315 345.843811 754.385315 C 345.843811 754.385315 345.613037 754.005493 345.613037 754.005493 C 346.819305 751.212952 348.025574 748.42041 349.754333 745.158081 C 351.095825 742.208618 351.914886 739.728943 352.733978 737.249268 C 352.680359 735.309265 352.62674 733.369202 352.706787 730.767456 C 352.534302 729.395081 352.228088 728.684387 351.921906 727.973694 C 351.524414 727.307983 351.126923 726.642273 350.89566 725.356812 C 350.19397 723.892456 349.32608 723.047852 348.458191 722.203186 C 348.172943 722.180969 347.976135 722.037476 347.841492 721.219971 C 346.29892 719.439514 344.782715 718.21167 343.266541 716.983887 C 342.941162 716.796265 342.615784 716.608704 342.120209 715.82251 C 338.938049 713.160095 335.926147 711.096375 332.914246 709.032654 C 331.979523 708.291626 331.04483 707.550598 329.97049 706.174561 C 328.8461 704.709106 327.861359 703.878723 326.876587 703.048279 C 326.313873 702.543945 325.75116 702.039612 325.06015 700.975952 C 324.210358 699.59906 323.488861 698.781555 322.767334 697.96405 C 322.495453 697.638306 322.223572 697.3125 321.74115 696.240295 C 321.374542 695.232544 321.218506 694.971191 321.0625 694.7099 C 321.064209 694.469299 321.065887 694.228699 321.329956 694.142029 C 321.691711 694.126587 321.791016 693.957214 321.890381 693.787842 C 321.852997 694.06897 321.815643 694.350037 321.556396 694.190063 C 320.987762 687.451721 319.960114 681.123962 322.780121 675.042114 C 323.998932 672.413513 324.909485 669.641968 325.960022 666.935364 C 325.960022 666.935364 326.000153 666.988159 326.331116 666.92334 C 328.081055 665.171448 329.5 663.484314 330.918945 661.79718 C 331.44632 661.254822 331.973663 660.712463 333.031433 660.065552 C 334.05191 659.546875 334.541962 659.132629 335.031982 658.718445 C 335.691895 658.147949 336.351807 657.577454 337.73175 656.959595 C 339.819031 655.815308 341.186249 654.718323 342.553467 653.621338 C 341.584106 652.792419 340.614716 651.963501 339.645325 651.134521 C 338.429108 650.322754 337.212921 649.510986 335.733826 648.335205 C 335.470978 647.97113 335.12027 647.966797 335.12027 647.966797 C 324.919098 642.485474 317.538666 634.303223 313.450958 623.584534 C 308.493744 610.585815 313.249329 599.537903 321.512207 589.407898 C 325.60614 584.388855 329.854156 579.394775 333.191101 573.880371 C 339.709808 563.107971 337.236877 554.787598 325.88147 549.334106 C 315.99295 544.585144 305.585144 540.908997 295.743195 536.074097 C 287.684052 532.115051 281.265686 525.964844 277.2771 517.707886 C 270.878387 504.4617 272.524872 491.781219 280.565735 479.827057 C 290.098938 465.654205 303.578888 455.393127 316.342041 444.460327 C 345.908844 419.133728 371.238373 390.568451 386.112488 353.929932 C 395.151337 331.66507 399.958313 308.411255 402.04245 284.56723 C 405.290436 247.407745 411.475067 210.847 425.072296 175.939087 C 440.779724 135.613693 461.8797 98.67556 494.614288 69.42144 C 498.332886 66.098206 502.396088 63.158642 506.342346 60.096409 C 506.617798 59.882671 507.250946 60.129959 508.116272 60.190956 C 507.645905 60.925407 507.426361 61.51384 507.011261 61.881435 C 476.727631 88.700768 457.592438 123.028481 441.331696 159.301636 C 424.66922 196.470947 415.813354 235.597977 411.949768 275.990051 C 408.974304 307.097168 404.537506 337.869965 390.940186 366.516235 C 377.0914 395.692291 357.394135 420.430328 333.542267 441.984039 C 323.286224 451.251892 312.605835 460.065765 302.618622 469.609558 C 296.884155 475.089386 291.399872 481.13504 287.131653 487.779541 C 279.210419 500.110687 282.476013 514.982849 294.897339 522.674377 C 303.18103 527.803833 312.427551 531.380127 321.250916 535.635376 C 325.438385 537.654968 329.902832 539.230774 333.79422 541.710022 C 346.950989 550.092529 350.34845 563.475586 342.704773 577.169067 C 340.133179 581.77594 336.567719 585.836426 333.375885 590.08606 C 330.777679 593.545349 327.757721 596.723022 325.451416 600.359558 C 319.017456 610.5047 320.075958 620.661255 327.948944 629.766846 C 333.294922 635.949707 340.095184 639.869934 347.886108 643.575073 C 349.757446 644.698975 351.20874 645.2547 352.660034 645.810425 C 363.95929 651.107117 375.258545 656.403748 386.840729 662.273804 C 387.946014 663.567932 388.768433 664.288574 389.590851 665.009216 C 391.277924 671.037781 388.792877 674.401062 382.896912 673.42572 C 379.516602 672.866455 376.263641 671.391418 373.029816 670.132263 C 369.470551 668.746399 365.990173 667.155334 362.490784 665.618713 C 349.477142 659.904663 340.593628 662.779541 330.640076 674.861816 C 329.602203 676.416382 329.090393 677.647217 328.578552 678.878052 C 326.067871 689.079773 331.547638 695.551636 338.996765 701.053223 C 344.563599 705.164673 350.197571 709.185181 355.961975 713.867676 C 356.933044 715.329712 357.743805 716.170288 358.554565 717.010803 C 364.796875 726.506287 363.776733 736.287537 359.657776 746.166199 C 358.901184 747.980713 357.953979 749.715759 356.516052 751.879272 C 355.334167 753.632446 354.731018 754.993835 354.127869 756.355286 C 353.725372 757.406433 353.322876 758.457581 352.387207 759.907349 C 351.290558 761.739868 350.727051 763.173645 350.163544 764.607422 C 348.451935 769.966858 346.274353 775.227295 345.110809 780.703186 C 340.532104 802.25177 348.398773 819.812927 367.346375 831.266541 C 381.51355 839.830566 397.127777 843.365051 413.870667 845.147583 C 414.994446 846.108154 415.655487 846.866272 416.326141 846.874878 C 424.220459 846.97583 432.117462 847.036682 440.009857 846.892578 C 441.014374 846.874207 441.99649 845.630371 442.988983 844.954224 C 454.013855 843.651428 465.041138 842.368591 476.063171 841.042114 C 515.028137 836.352783 554.111328 832.463501 592.925598 826.748718 C 644.344788 819.17804 694.935425 807.737976 744.233765 788.789673 C 745.612122 788.392517 746.311829 787.984863 747.011475 787.577271 C 750.031982 786.20575 753.052429 784.834167 756.540771 783.760376 C 757.593201 784.515991 758.177856 784.973877 758.762512 785.431763 C 759.174866 784.273071 759.587158 783.114319 759.999451 781.955627 C 760.613892 781.568726 761.228394 781.181824 762.443848 780.814514 C 763.699524 780.379578 764.354248 779.925049 765.008911 779.47052 C 776.112549 772.820618 787.511536 766.612305 798.257019 759.426941 C 819.264771 745.379456 836.322632 727.330261 849.760498 705.919128 C 852.05188 702.268188 853.893616 698.335022 856.508911 694.122925 C 857.66156 692.27533 858.248291 690.836975 858.835083 689.398621 C 862.144348 677.841064 865.453613 666.283569 869.158936 654.367188 C 869.893494 654.009033 870.231995 654.009766 870.570557 654.010498 C 869.636963 661.83252 868.703308 669.654602 867.349487 677.666382 C 866.281616 677.829468 865.633972 677.802734 864.986267 677.776001 C 865.229736 680.156189 865.473267 682.536377 865.716736 684.916565 C 864.140442 689.421875 862.564209 693.927246 860.454834 698.871216 C 859.667297 700.053772 859.412781 700.797607 859.158203 701.541504 C 853.980957 710.218384 849.425659 719.347656 843.507202 727.485535 C 827.253296 749.83429 805.794006 766.328613 781.412537 780.095825 C 780.182556 780.618042 779.586853 781.080994 778.99115 781.543884 C 775.699219 783.384277 772.407349 785.224731 768.4198 787.114502 C 765.812256 788.239441 763.900391 789.315063 761.988525 790.390625 C 741.829224 800.4729 720.589844 807.627686 699.002808 813.92157 C 662.046387 824.696594 624.280334 831.637573 586.413696 838.14856 C 584.565247 838.466431 582.763855 839.057495 580.253174 839.696228 C 590.251526 845.783203 599.403809 851.355103 608.772339 857.573303 C 608.625305 861.965027 610.797363 861.66803 613.264099 860.901306 C 615.122375 862.276123 616.980652 863.650879 619.002563 865.580688 C 619.761719 866.471558 620.357361 866.807251 620.952942 867.142944 C 624.532715 870.337891 628.112488 873.532837 631.915588 877.329224 C 633.005066 878.621887 633.871216 879.313171 634.737366 880.004395 C 640.455505 886.651978 646.173645 893.299622 651.96521 900.618042 C 652.874207 902.197388 653.709717 903.105957 654.545227 904.014465 C 657.692322 908.622131 660.839417 913.229797 664.03894 918.481506 C 664.592041 919.752869 665.092773 920.380188 665.593506 921.007568 C 666.556824 922.501648 667.520142 923.995728 668.452209 926.008911 C 668.83374 927.02063 669.24646 927.513306 669.659241 928.00592 C 675.840393 940.240173 682.021606 952.474426 688.182007 965.361145 C 688.580078 966.679688 688.998901 967.345825 689.417786 968.011902 C 698.484253 986.703003 705.527222 1006.113342 710.988403 1026.085815 C 710.440735 1026.318115 709.893005 1026.550415 709.345337 1026.782715 C 706.776367 1021.024963 704.207397 1015.267212 701.680664 1008.823242 C 701.238586 1007.423523 700.754333 1006.7099 700.270081 1005.996277 C 696.153931 997.385193 692.03772 988.77417 687.885437 979.520081 C 687.425293 978.247559 687.001221 977.618103 686.577209 976.988586 C 681.704712 967.655212 676.832275 958.321838 671.911316 948.365479 C 671.443665 947.15741 671.024475 946.572327 670.605347 945.987244 C 664.491211 936.267822 658.674194 926.345459 652.204407 916.868835 C 635.956055 893.068909 616.234863 872.729797 591.272644 857.924622 C 586.280396 854.963806 580.854126 852.734924 575.193298 849.65271 C 567.935852 844.424988 560.059143 844.548096 552.277222 844.236328 C 551.705322 844.280273 551.133362 844.324219 549.978455 843.979492 C 544.651672 843.070984 539.916077 842.322754 535.15979 842.152893 C 533.452271 842.091858 531.694946 843.424255 529.960388 844.120728 C 529.389832 844.238831 528.819336 844.356934 527.483398 844.283447 C 519.614258 844.450012 512.512573 844.86261 505.40567 845.143311 C 501.857666 845.283447 498.227997 844.733887 494.763123 845.29126 C 488.993805 846.219299 483.313232 847.729797 477.631317 849.140259 C 476.66394 849.380432 475.876617 850.345886 475.006104 850.976196 M 606.073486 827.47467 C 606.286804 827.570862 606.495483 827.682861 606.717773 827.748108 C 606.756714 827.759521 606.853271 827.574585 606.923279 827.480347 C 606.700378 827.404785 606.477539 827.329224 606.073486 827.47467 M 620.470886 869.498047 C 620.470886 869.498047 620.513 869.481873 620.470886 869.498047 M 472.497528 844.528564 C 472.497528 844.528564 472.48114 844.486633 472.497528 844.528564 M 610.471252 831.497131 C 610.471252 831.497131 610.513123 831.480896 610.471252 831.497131 z"  />
<path   d="M 392.170654 851.517822 C 395.708405 851.280151 399.55365 851.007874 403.373596 851.211243 C 412.597717 851.702148 421.826447 853.094543 431.023071 852.872131 C 443.403412 852.572754 455.753143 851.068176 468.122253 850.166199 C 469.553345 850.061829 471.024048 850.501099 472.772217 850.92749 C 446.22644 855.203796 419.370239 857.036133 392.170654 851.517822 z"  />
<path   d="M 475.349365 851.045898 C 475.876617 850.345886 476.66394 849.380432 477.631317 849.140259 C 483.313232 847.729797 488.993805 846.219299 494.763123 845.29126 C 498.227997 844.733887 501.857666 845.283447 505.40567 845.143311 C 512.512573 844.86261 519.614258 844.450012 527.215576 844.155823 C 510.372864 846.518372 493.032745 848.816895 475.349365 851.045898 z"  />
<path   d="M 325.672546 667.089233 C 324.909485 669.641968 323.998932 672.413513 322.780121 675.042114 C 319.960114 681.123962 320.987762 687.451721 321.133484 694.144897 C 316.347076 684.451477 318.932434 675.531921 325.672546 667.089233 z"  />
<path   d="M 342.617737 759.888428 C 340.427795 768.055603 337.983917 776.44696 335.248383 784.924866 C 337.425781 776.711792 339.894806 768.412292 342.617737 759.888428 z"  />
<path   d="M 530.355103 844.222778 C 531.694946 843.424255 533.452271 842.091858 535.15979 842.152893 C 539.916077 842.322754 544.651672 843.070984 549.716064 843.841614 C 543.607788 844.169922 537.178772 844.247437 530.355103 844.222778 z"  />
<path   d="M 552.608459 844.447632 C 560.059143 844.548096 567.935852 844.424988 574.884644 849.453003 C 567.653625 848.065735 560.296692 846.362366 552.608459 844.447632 z"  />
<path   d="M 442.548859 844.883301 C 441.99649 845.630371 441.014374 846.874207 440.009857 846.892578 C 432.117462 847.036682 424.220459 846.97583 416.326141 846.874878 C 415.655487 846.866272 414.994446 846.108154 414.166687 845.3396 C 415.759064 845.028442 417.513672 845.075928 420.027039 845.476685 C 425.82608 845.691833 430.866333 845.553833 435.906616 845.415771 C 437.973999 845.2146 440.041351 845.013428 442.548859 844.883301 z"  />
<path   d="M 337.10553 808.327026 C 339.4328 812.396851 341.706909 816.744812 343.995728 821.45752 C 341.691071 817.416504 339.371735 813.010803 337.10553 808.327026 z"  />
<path   d="M 435.538574 845.266846 C 430.866333 845.553833 425.82608 845.691833 420.446838 845.609497 C 425.128784 845.298767 430.149689 845.208374 435.538574 845.266846 z"  />
<path   d="M 353.112366 832.310425 C 355.972778 834.095276 358.953522 836.186218 361.968201 838.636353 C 359.07901 836.869263 356.155853 834.74292 353.112366 832.310425 z"  />
<path   d="M 333.058777 709.328247 C 335.926147 711.096375 338.938049 713.160095 341.977112 715.57373 C 339.070557 713.823669 336.136932 711.723816 333.058777 709.328247 z"  />
<path   d="M 865.938354 684.600708 C 865.473267 682.536377 865.229736 680.156189 864.986267 677.776001 C 865.633972 677.802734 866.281616 677.829468 867.174561 678.000732 C 866.999817 680.191833 866.579895 682.238281 865.938354 684.600708 z"  />
<path   d="M 378.161987 847.458496 C 380.53479 847.922119 383.150726 848.622681 385.883667 849.642761 C 383.468811 849.206665 380.936981 848.451111 378.161987 847.458496 z"  />
<path   d="M 339.991974 651.457642 C 340.614716 651.963501 341.584106 652.792419 342.553467 653.621338 C 341.186249 654.718323 339.819031 655.815308 338.058167 656.890381 C 337.800598 654.775635 343.100708 655.396912 339.991974 651.457642 z"  />
<path   d="M 371.076111 844.311646 C 372.851379 844.773804 374.836304 845.495178 376.912476 846.570496 C 375.097717 846.139832 373.191742 845.355347 371.076111 844.311646 z"  />
<path   d="M 330.602356 661.903931 C 329.5 663.484314 328.081055 665.171448 326.300232 666.911377 C 327.387482 665.312988 328.836609 663.661865 330.602356 661.903931 z"  />
<path   d="M 613.121826 860.620361 C 610.797363 861.66803 608.625305 861.965027 608.984375 857.871826 C 610.313293 858.462463 611.646484 859.40094 613.121826 860.620361 z"  />
<path   d="M 352.502991 737.525696 C 351.914886 739.728943 351.095825 742.208618 350.005371 744.859253 C 350.579956 742.620911 351.425995 740.211487 352.502991 737.525696 z"  />
<path   d="M 762.316772 790.356934 C 763.900391 789.315063 765.812256 788.239441 768.090576 787.151794 C 766.519714 788.200928 764.582397 789.262085 762.316772 790.356934 z"  />
<path   d="M 343.415344 717.255432 C 344.782715 718.21167 346.29892 719.439514 347.832397 721.029053 C 346.421143 720.102844 344.992676 718.814941 343.415344 717.255432 z"  />
<path   d="M 344.92514 823.330627 C 345.896301 824.092102 346.936707 825.175171 347.992737 826.617676 C 347.003662 825.868774 345.999023 824.760498 344.92514 823.330627 z"  />
<path   d="M 759.701172 781.937622 C 759.587158 783.114319 759.174866 784.273071 758.762512 785.431763 C 758.177856 784.973877 757.593201 784.515991 756.917969 783.704712 C 757.685852 782.874146 758.544373 782.396851 759.701172 781.937622 z"  />
<path   d="M 348.544006 722.502686 C 349.32608 723.047852 350.19397 723.892456 350.802002 724.978027 C 349.904755 724.413452 349.267303 723.607849 348.544006 722.502686 z"  />
<path   d="M 354.397888 756.184998 C 354.731018 754.993835 355.334167 753.632446 356.227844 752.131226 C 355.90152 753.33252 355.284729 754.673584 354.397888 756.184998 z"  />
<path   d="M 352.45459 645.544983 C 351.20874 645.2547 349.757446 644.698975 348.147827 643.851929 C 349.409393 644.133545 350.829285 644.706543 352.45459 645.544983 z"  />
<path   d="M 365.228546 841.218262 C 366.282745 841.536865 367.496033 842.098083 368.868561 842.894287 C 367.814423 842.573181 366.601013 842.017029 365.228546 841.218262 z"  />
<path   d="M 654.481873 903.711426 C 653.709717 903.105957 652.874207 902.197388 652.03772 900.924316 C 652.830627 901.509277 653.624573 902.458801 654.481873 903.711426 z"  />
<path   d="M 328.796051 678.645264 C 329.090393 677.647217 329.602203 676.416382 330.378754 675.090088 C 330.100189 676.133911 329.556854 677.273254 328.796051 678.645264 z"  />
<path   d="M 858.569763 689.602295 C 858.248291 690.836975 857.66156 692.27533 856.775879 693.861206 C 857.08606 692.607788 857.695251 691.206848 858.569763 689.602295 z"  />
<path   d="M 350.408264 764.383301 C 350.727051 763.173645 351.290558 761.739868 352.1427 760.148132 C 351.838531 761.379822 351.245789 762.76947 350.408264 764.383301 z"  />
<path   d="M 322.786621 698.24408 C 323.488861 698.781555 324.210358 699.59906 324.967773 700.703125 C 324.271118 700.167847 323.538513 699.346008 322.786621 698.24408 z"  />
<path   d="M 389.560181 664.72583 C 388.768433 664.288574 387.946014 663.567932 387.059479 662.564636 C 387.840057 663.002136 388.684784 663.72229 389.560181 664.72583 z"  />
<path   d="M 634.657837 879.733887 C 633.871216 879.313171 633.005066 878.621887 632.065918 877.646606 C 632.854675 878.062805 633.716492 878.763123 634.657837 879.733887 z"  />
<path   d="M 326.969666 703.358337 C 327.861359 703.878723 328.8461 704.709106 329.867767 705.88916 C 328.957397 705.38208 328.010071 704.525208 326.969666 703.358337 z"  />
<path   d="M 358.507812 716.714844 C 357.743805 716.170288 356.933044 715.329712 356.086365 714.176025 C 356.854004 714.714905 357.657532 715.566895 358.507812 716.714844 z"  />
<path   d="M 387.21759 850.332031 C 387.901093 850.22345 388.859039 850.285706 389.910278 850.63324 C 389.166382 850.779968 388.329254 850.641418 387.21759 850.332031 z"  />
<path   d="M 334.961029 799.265625 C 335.336884 799.943176 335.629456 800.872009 335.881775 802.182129 C 335.520264 801.547913 335.199005 800.53241 334.961029 799.265625 z"  />
<path   d="M 869.446777 650.990967 C 869.643066 650.552673 869.839417 650.114319 870.035706 649.676025 C 870.24176 649.997192 870.447876 650.318359 870.386597 650.811951 C 869.895081 650.984192 869.670959 650.986389 869.446777 650.990967 z"  />
<path   d="M 869.291992 651.346313 C 869.670959 650.986389 869.895081 650.984192 870.284546 650.984253 C 870.565247 651.743469 870.680725 652.502869 870.68335 653.636353 C 870.231995 654.009766 869.893494 654.009033 869.301025 654.011597 C 869.077148 653.243835 869.107178 652.472778 869.291992 651.346313 z"  />
<path   d="M 362.123901 839.221619 C 362.600677 839.276123 363.196106 839.554749 363.911407 840.059387 C 363.435028 840.005493 362.838776 839.725647 362.123901 839.221619 z"  />
<path   d="M 700.305298 1006.317871 C 700.754333 1006.7099 701.238586 1007.423523 701.680054 1008.491333 C 701.205017 1008.110168 700.772766 1007.374756 700.305298 1006.317871 z"  />
<path   d="M 686.589966 977.281067 C 687.001221 977.618103 687.425293 978.247559 687.851868 979.181396 C 687.437195 978.848328 687.019958 978.210938 686.589966 977.281067 z"  />
<path   d="M 689.411621 967.708862 C 688.998901 967.345825 688.580078 966.679688 688.165405 965.696167 C 688.581543 966.054443 688.993469 966.730164 689.411621 967.708862 z"  />
<path   d="M 670.625366 946.265686 C 671.024475 946.572327 671.443665 947.15741 671.873779 948.028809 C 671.471619 947.724731 671.058533 947.13446 670.625366 946.265686 z"  />
<path   d="M 669.636841 927.726807 C 669.24646 927.513306 668.83374 927.02063 668.521729 926.330688 C 668.953064 926.571472 669.283752 927.009583 669.636841 927.726807 z"  />
<path   d="M 665.543579 920.704529 C 665.092773 920.380188 664.592041 919.752869 664.0672 918.801147 C 664.526611 919.118286 665.010071 919.759888 665.543579 920.704529 z"  />
<path   d="M 620.816284 866.863159 C 620.357361 866.807251 619.761719 866.471558 619.157776 865.856812 C 619.659485 865.913025 620.169495 866.24823 620.816284 866.863159 z"  />
<path   d="M 334.77774 658.727478 C 334.541962 659.132629 334.05191 659.546875 333.310852 659.990967 C 333.547699 659.592773 334.035583 659.164612 334.77774 658.727478 z"  />
<path   d="M 859.40686 701.372498 C 859.412781 700.797607 859.667297 700.053772 860.182983 699.150391 C 860.181213 699.728455 859.918396 700.465942 859.40686 701.372498 z"  />
<path   d="M 351.89502 728.2677 C 352.228088 728.684387 352.534302 729.395081 352.788574 730.411987 C 352.447144 729.999329 352.157654 729.280457 351.89502 728.2677 z"  />
<path   d="M 764.705811 779.502686 C 764.354248 779.925049 763.699524 780.379578 762.722534 780.835571 C 763.067749 780.402954 763.735168 779.968872 764.705811 779.502686 z"  />
<path   d="M 779.278198 781.505676 C 779.586853 781.080994 780.182556 780.618042 781.080444 780.14325 C 780.776733 780.576721 780.170959 781.022095 779.278198 781.505676 z"  />
<path   d="M 746.703247 787.594849 C 746.311829 787.984863 745.612122 788.392517 744.58551 788.776367 C 744.970703 788.372498 745.682861 787.992432 746.703247 787.594849 z"  />
<path   d="M 335.971497 804.237549 C 336.320587 804.637512 336.58609 805.257324 336.836151 806.224548 C 336.509766 805.867065 336.198822 805.162231 335.971497 804.237549 z"  />
<path   d="M 351.025909 830.284668 C 351.562286 830.467957 352.203125 830.932678 352.919861 831.702698 C 352.373932 831.527344 351.752167 831.046753 351.025909 830.284668 z"  />
<path   d="M 321.000702 694.960938 C 321.218506 694.971191 321.374542 695.232544 321.704163 695.916077 C 321.564789 695.962891 321.251831 695.587463 321.000702 694.960938 z"  />
<path   d="M 321.828064 693.787109 C 321.791016 693.957214 321.691711 694.126587 321.688721 694.102783 C 321.785065 693.909546 321.765778 693.786438 321.828064 693.787109 z"  />
<path   d="M 345.434387 754.133667 C 345.613037 754.005493 345.843811 754.385315 345.843811 754.385315 C 345.843811 754.385315 345.568604 754.691711 345.405304 754.696533 C 345.242004 754.701294 345.255737 754.26178 345.434387 754.133667 z"  />
<path   d="M 335.18573 648.046875 C 335.12027 647.966797 335.470978 647.97113 335.553955 647.999023 C 335.636902 648.026855 335.25119 648.126892 335.18573 648.046875 z"  />
<path   d="M 606.164062 827.364136 C 606.477539 827.329224 606.700378 827.404785 606.923218 827.480347 C 606.853271 827.574585 606.756714 827.759521 606.717773 827.748108 C 606.495483 827.682861 606.286804 827.570862 606.164062 827.364136 z"  />
<path   d="M 620.491943 869.48999 C 620.513 869.481873 620.470886 869.498047 620.491943 869.48999 z"  />
<path   d="M 472.489319 844.507568 C 472.48114 844.486633 472.497528 844.528564 472.489319 844.507568 z"  />
<path   d="M 610.492188 831.489014 C 610.513123 831.480896 610.471252 831.497131 610.492188 831.489014 z"  />
</svg>

